<?xml version="1.0" encoding="UTF-8" standalone="no"?>
<!-- Created with Inkscape (http://www.inkscape.org/) -->

<svg
   width="32"
   height="32"
   viewBox="0 0 8.4666665 8.4666665"
   version="1.1"
   id="svg1"
   xml:space="preserve"
   inkscape:version="1.4.2 (f4327f4, 2025-05-13)"
   sodipodi:docname="mage_128.svg"
   xmlns:inkscape="http://www.inkscape.org/namespaces/inkscape"
   xmlns:sodipodi="http://sodipodi.sourceforge.net/DTD/sodipodi-0.dtd"
   xmlns="http://www.w3.org/2000/svg"
   xmlns:svg="http://www.w3.org/2000/svg"><sodipodi:namedview
     id="namedview1"
     pagecolor="#505050"
     bordercolor="#eeeeee"
     borderopacity="1"
     inkscape:showpageshadow="0"
     inkscape:pageopacity="0"
     inkscape:pagecheckerboard="0"
     inkscape:deskcolor="#505050"
     inkscape:document-units="mm"
     inkscape:zoom="5.2913967"
     inkscape:cx="20.788462"
     inkscape:cy="14.268444"
     inkscape:window-width="1366"
     inkscape:window-height="705"
     inkscape:window-x="-8"
     inkscape:window-y="-8"
     inkscape:window-maximized="1"
     inkscape:current-layer="layer1" /><defs
     id="defs1"><inkscape:path-effect
       effect="spiro"
       id="path-effect1"
       is_visible="true"
       lpeversion="1" /><inkscape:path-effect
       effect="spiro"
       id="path-effect1-4"
       is_visible="true"
       lpeversion="1" /><clipPath
       clipPathUnits="userSpaceOnUse"
       id="clipPath254"><path
         id="path255"
         style="fill:#ff0000;fill-opacity:1;fill-rule:nonzero;stroke:none;stroke-width:0.264582"
         d="M 26.780435,38.102217 16.24146,38.102705 V 51.855433 H 51.49187 V 38.102693 H 41.200678 c 0.06692,0.01818 0.133433,0.03482 0.200728,0.04815 0.02904,0.0604 0.05996,0.120502 0.08745,0.181622 0.01409,0.03138 0.02537,0.06425 0.03789,0.09629 0.01618,0.03659 0.03141,0.07289 0.04831,0.109165 0.01934,0.04148 0.03931,0.08246 0.05955,0.123463 0.15329,0.09496 0.210258,0.233962 0.181985,0.35514 0.01484,0.02827 0.03015,0.05674 0.04581,0.08533 0.0343,-0.03335 0.06628,-0.05454 0.0937,-0.05625 0.04459,-0.0028 0.07794,0.04618 0.09162,0.181145 0.0044,0.04387 0.01561,0.08803 0.01292,0.132047 -0.0024,0.03893 -0.01066,0.0757 -0.0229,0.110593 0.03332,0.101154 0.05002,0.205992 0.03498,0.31605 -0.0165,0.120748 -0.0758,0.231685 -0.113689,0.347513 -0.08459,0.08311 -0.154676,0.183455 -0.253616,0.248836 -0.302941,0.200186 -0.700227,0.122223 -1.000718,-0.03003 -0.07021,-0.03558 -0.135544,-0.07994 -0.203224,-0.120128 -0.0039,-0.0027 -0.0078,-0.0054 -0.01166,-0.0081 -0.10877,0.08333 -0.281625,0.109563 -0.502649,0.02385 -0.168209,-0.06526 -0.337653,-0.126472 -0.50848,-0.182098 -0.322203,-0.105113 -0.646172,-0.2008 -0.973647,-0.281729 -0.277634,-0.06704 -0.558093,-0.114056 -0.840387,-0.145392 -0.264534,-0.02637 -0.53047,-0.0328 -0.795827,-0.03861 -0.189706,-0.0035 -0.379083,0.0056 -0.568448,0.01716 -0.12496,0.0076 -0.228983,-0.01167 -0.311917,-0.04862 -0.105772,0.02416 -0.212062,0.04658 -0.316082,0.07341 -0.810442,0.165987 -1.629136,0.289571 -2.457026,0.322723 -1.114852,0.03854 -2.230444,0.03433 -3.345303,0.0758 -0.04727,0.002 -0.09177,0.0036 -0.134096,0.0052 -0.171194,0.07092 -0.441691,0.07264 -0.766259,0.03766 -0.09259,0.0061 -0.185382,0.0133 -0.277768,0.02194 -0.08547,0.008 -0.16967,0.02697 -0.255279,0.03337 0.0038,-0.002 0.01539,-0.0065 0.0204,-0.0086 0.07456,-0.03084 0.132627,-0.06161 0.176573,-0.092 -0.08359,-0.01308 -0.169219,-0.02739 -0.256529,-0.04291 -0.0013,0.0012 -0.0025,0.0025 -0.0038,0.0038 -0.01392,0.03792 -0.02841,0.07553 -0.04331,0.112977 -0.02952,0.05856 -0.07023,0.16112 -0.162829,0.111547 -0.0069,-0.0037 -0.01331,-0.0082 -0.01915,-0.01335 -0.0342,0.02865 -0.05806,0.0464 -0.105361,0.08295 -0.0045,0.0031 -0.009,0.0062 -0.01375,0.0095 -0.585,1.038962 -0.832462,1.959518 0.827477,1.897259 0.0044,-1.66e-4 0.0151,-9.77e-4 0.01791,-9.77e-4 l -4.26e-4,4.89e-4 c -0.214651,0.07079 -0.456491,0.194159 -0.71795,0.203549 -0.267713,0.0096 -0.535357,-0.02856 -0.802907,-0.0429 -0.873124,-0.489247 -0.840609,-0.373209 -1.075677,-0.714096 -0.547629,0.107728 -1.14689,-0.463422 -1.14689,-1.713728 v -0.05148 c 0,-1.151124 0.507791,-1.726601 1.01571,-1.726601 0.103175,0 0.206316,0.02353 0.305254,0.07103 0.08716,-0.05502 0.188769,-0.0876 0.292761,-0.07389 0.0093,0.0012 0.01796,0.0031 0.02707,0.0052 0.0024,-0.01843 0.0056,-0.03653 0.0092,-0.05387 z m 0.910349,4.88e-4 c 0.01064,0.01882 0.0212,0.03824 0.03123,0.05863 0.04416,-0.01984 0.08797,-0.03933 0.132429,-0.05863 z m 10.464016,0.07198 c -0.01271,0.0035 -0.02583,0.0061 -0.03915,0.0086 0.01166,-2.45e-4 0.02339,-0.0012 0.03457,-0.002 h 4.27e-4 4.26e-4 l 8.53e-4,-4.88e-4 c 0.0013,-0.0012 0.0027,-0.0035 0.0033,-0.0048 v -4.89e-4 l 4.27e-4,-4.88e-4 v -4.88e-4 h -4.27e-4 z m -10.519819,1.642226 c -0.01617,0.01 -0.03287,0.01862 -0.04956,0.02622 0.01373,0.0027 0.02749,0.0054 0.04123,0.0081 0.0026,-0.0115 0.0055,-0.02292 0.0083,-0.03432 z m 0.800406,0.321293 h 4.27e-4 v 4.88e-4 h -4.27e-4 z" /></clipPath></defs><g
     inkscape:label="Layer 1"
     inkscape:groupmode="layer"
     id="layer1"><g
       inkscape:label="Layer 1"
       id="layer1-8"
       transform="matrix(0.14771139,0,0,0.12608626,-0.65433026,0.26299615)"><g
         id="g1"
         inkscape:label="hat"><ellipse
           style="opacity:1;fill:none;stroke:#ffffff;stroke-width:1.00542;stroke-dasharray:none;stroke-opacity:1"
           id="path1"
           cx="33.866665"
           cy="44.979176"
           rx="16.866747"
           ry="6.1138158"
           clip-path="url(#clipPath254)"
           transform="matrix(1.2408943,0,0,1.0840496,-8.1582848,0.38165171)" /><path
           style="opacity:1;fill:none;stroke:#ffffff;stroke-width:1.16611;stroke-dasharray:none;stroke-opacity:1"
           d="M 22.515683,47.184467 32.343565,9.0088846 45.154911,47.491096 Z"
           id="path2" /></g><text
         xml:space="preserve"
         style="font-style:normal;font-variant:normal;font-weight:normal;font-stretch:normal;font-size:12.7054px;line-height:10.8284px;font-family:Arial;-inkscape-font-specification:Arial;text-align:start;writing-mode:lr-tb;direction:ltr;text-anchor:start;opacity:1;fill:#ffffff;fill-opacity:1;stroke:#ffffff;stroke-width:0.238919;stroke-dasharray:none;stroke-opacity:1"
         x="25.557058"
         y="46.305401"
         id="text251"
         transform="scale(1.0809965,0.92507238)"
         inkscape:label="m_for_mage"><tspan
           sodipodi:role="line"
           id="tspan251"
           style="font-style:normal;font-variant:normal;font-weight:normal;font-stretch:normal;font-family:Arial;-inkscape-font-specification:Arial;fill:#ffffff;fill-opacity:1;stroke-width:0.238919;stroke-dasharray:none"
           x="25.557058"
           y="46.305401">M</tspan></text></g></g></svg>
